<?xml version="1.0" encoding="UTF-8" standalone="no"?>
<svg width="1000px" height="1000px" viewBox="0 0 0 0" version="1.1" xmlns="http://www.w3.org/2000/svg" xmlns:xlink="http://www.w3.org/1999/xlink" preserveAspectRatio="xMidYMid">
	<g>
		<path d="M500.0,500.0 c328.867,50.292 124.917798,25.73382 c421.965,114.841 209.366993,130.248348 318.541545,60.8977158 c475.681643,103.856188 c446.712445,100.554323 144.676414,73.0725517 112.73475,240.522711 218.237052,56.262637 m255.569,84.72 274.417986,111.271779 c77.800767,255.395053 344.373747,71.869539 l16.491,96.107 l185.666602,87.5803369 l0,0 165.02,89.581 436.779029,6.53915189 l450.968,124.181 l128,59.72 c311.313485,98.2416813 226.181948,178.997508 l280.816407,36.558458 l226.354,44.091 155.853301,212.819857 m127.584,165.171 260.764,126.412 z 129.488772,205.660645 l62.2594273,192.231662 409.728438,0.256116452 141.104,283.384376 17.4001979,263.393541 m127.9998,0.6979 m117.159215,0 l453.302435,80.7945637 c203.467658,0.50755886 200.72331,121.17131 135.525,97.333 c387.250438,45.0577933 c5.041,219.036376 l127.983514,195.308789 108.526,5.71 35.839,231.24 l423.629,117.601 c233.145378,58.107036 m390.621784,26.1945734 l128.004,217.284 187.973,154.772 l239.505,96.107 98.1913725,147.763727 l43.9915789,208.146396 -0.0488663608,57.8017502 184.633006,85.2059167 l42.3830069,77.1622621 215.52164,129.604027 76.5144981,165.654523 l226.354,44.091 c444.578,15.768 l252.899,72.489 l107.784142,123.103375 m264.886,82.472 c0.03908851,223.427024 145.216,157.158 c294.447675,58.7713312 Z" fill="#000000"></path>
	</g>
</svg>

